# xmcd
#
# Track frame offsets:
#	150
#	14675
#	27665
#	41824
#	60316
#	73531
#	93292
#	113363
#	125964
#	136541
#
# Disc length: 2165 seconds
#
# Revision: 1
# Processed by: cddbd v1.4PL0 Copyright (c) Steve Scherf et al.
# Submitted via: audiograbber 1.82.02
#
DISCID=8408730a
DTITLE=The Nelons - Peace Within The Walls
DYEAR=2002
DGENRE=Christian
TTITLE0=Just Another Rainy Day
TTITLE1=He Called Me Out
TTITLE2=This Is The Life
TTITLE3=I Felt Your Prayers
TTITLE4=I'm Rich
TTITLE5=My Mama's Roses
TTITLE6=It's Our Turn To Sing
TTITLE7=The Battle Isn't Over
TTITLE8=The Darker The Night
TTITLE9=Sweet Peace
EXTD=
EXTT0=
EXTT1=
EXTT2=
EXTT3=
EXTT4=
EXTT5=
EXTT6=
EXTT7=
EXTT8=
EXTT9=
PLAYORDER=
